<svg xmlns="http://www.w3.org/2000/svg" width="32" height="32" fill="none" viewBox="0 0 32 32"><g filter="url(#filter0_d_108_7)"><path fill="#fff" d="M28 14V10H23.714C23.526 9.274 23.238 8.592 22.866 7.962L25.898 4.93L23.07 2.1L20.04 5.132C19.406 4.76 18.726 4.472 18 4.284V0H14V4.284C13.274 4.474 12.594 4.76 11.96 5.134L8.93 2.1L6.102 4.928L9.132 7.96C8.762 8.592 8.472 9.272 8.286 10H4V14H8.286C8.474 14.726 8.762 15.408 9.134 16.038L6.102 19.072L8.93 21.9L11.962 18.868C12.594 19.24 13.274 19.528 14.002 19.718V24H18.002V19.716C18.728 19.526 19.408 19.238 20.042 18.866L23.074 21.898L25.902 19.07L22.87 16.036C23.242 15.406 23.53 14.726 23.718 13.998H28V14ZM16 16C13.792 16 12 14.206 12 12C12 9.796 13.792 8 16 8C18.208 8 20 9.796 20 12C20 14.204 18.208 16 16 16Z"/></g><defs><filter id="filter0_d_108_7" width="32" height="32" x="0" y="0" color-interpolation-filters="sRGB" filterUnits="userSpaceOnUse"><feFlood flood-opacity="0" result="BackgroundImageFix"/><feColorMatrix in="SourceAlpha" result="hardAlpha" type="matrix" values="0 0 0 0 0 0 0 0 0 0 0 0 0 0 0 0 0 0 127 0"/><feOffset dy="4"/><feGaussianBlur stdDeviation="2"/><feComposite in2="hardAlpha" operator="out"/><feColorMatrix type="matrix" values="0 0 0 0 0 0 0 0 0 0 0 0 0 0 0 0 0 0 0.25 0"/><feBlend in2="BackgroundImageFix" mode="normal" result="effect1_dropShadow_108_7"/><feBlend in="SourceGraphic" in2="effect1_dropShadow_108_7" mode="normal" result="shape"/></filter></defs></svg>